<svg id="Layer_1" data-name="Layer 1" xmlns="http://www.w3.org/2000/svg" viewBox="0 0 795.2 150"><defs><style>.cls-1{fill:#231f20;}</style></defs><title>parkhub_final_rgb_all_black</title><path class="cls-1" d="M170,25a50,50,0,1,0,25,93.3V125h25V75A50,50,0,0,0,170,25Zm0,75a25,25,0,1,1,25-25A25,25,0,0,1,170,100Z" transform="translate(0)"/><path class="cls-1" d="M325.35,39.64L307.67,57.32A25,25,0,0,0,265,75v50H240V25h25v6.69A50,50,0,0,1,325.35,39.64Z" transform="translate(0)"/><path class="cls-1" d="M50,25A50,50,0,0,0,0,75v75H25V118.31A50,50,0,1,0,50,25Zm0,74.69a25,25,0,1,1,25-25A25,25,0,0,1,50,99.69Z" transform="translate(0)"/><path class="cls-1" d="M555.2,75v50h-25V75a25,25,0,1,0-50,0v50h-25V0h25V31.69A50,50,0,0,1,555.2,75Z" transform="translate(0)"/><path class="cls-1" d="M675.2,25V75a50,50,0,0,1-100,0V25h25V75a25,25,0,0,0,50,0V25h25Z" transform="translate(0)"/><path class="cls-1" d="M745.2,25a49.79,49.79,0,0,0-25,6.69V0h-25V75A50,50,0,1,0,745.2,25Zm0,75a25,25,0,1,1,25-25A25,25,0,0,1,745.2,100Z" transform="translate(0)"/><polygon class="cls-1" points="438.2 125 402.85 125 365.35 87.51 365.35 125 340.35 125 340.35 0 365.35 0 365.35 62.48 402.84 25 438.19 25 388.2 75 438.2 125"/></svg>