<svg xmlns="http://www.w3.org/2000/svg" viewBox="0 0 512.5 125.90001"><defs><style>.a{fill:#6d6e71;}.b{fill:#fff;}</style></defs><title>Atlas-Logo-White</title><path class="a" d="M520.25,139.85c-84.7-30.1-176.4-45.7-271.9-44.2a753.4184,753.4184,0,0,0-240.6,43.2,905.57069,905.57069,0,0,1,512.5,1Z" transform="translate(-7.75 -14.05001)"/><path class="b" d="M41.95,139.95l44.6-69.6h17.7l45.2,69.6h-20.6l-34.1-56.1-34.5,56.1Z" transform="translate(-7.75 -14.05001)"/><path class="b" d="M189.65,82.85v57.1h-14V82.85h-27.5V70.35h69.2v12.5Z" transform="translate(-7.75 -14.05001)"/><path class="b" d="M233.95,139.95V70.35h14v56.5h31.3v13.1Z" transform="translate(-7.75 -14.05001)"/><path class="b" d="M296.05,139.95l44.6-69.6h17.7l45.2,69.6h-20.6l-34.1-56.1-34.5,56.1Z" transform="translate(-7.75 -14.05001)"/><path class="b" d="M435.15,70.35h49.8v12.2h-52.4v14.9h37.4c5.9,0,9.8,1.2,11.9,3.5s3.1,6.7,3.1,12.9v9.6c0,6.3-1,10.6-3.1,12.9s-6.1,3.5-11.9,3.5h-49.7v-13.1h52.3v-15.8h-37.4c-5.8,0-9.8-1.2-11.8-3.5s-3.1-6.7-3.1-12.9v-7.7c0-6.3,1-10.7,3.1-13S429.35,70.35,435.15,70.35Z" transform="translate(-7.75 -14.05001)"/><path class="b" d="M51.65,28.05v-7.8h18a8.08547,8.08547,0,0,0,2-.2c.4-.2.5-.4.5-.9v-1.5a.79181.79181,0,0,0-.5-.8,5.01709,5.01709,0,0,0-2-.2h-18v-2.4h20.6a10.06389,10.06389,0,0,1,4.1.6,2.0834,2.0834,0,0,1,1.3,2.1v3.1a2.26388,2.26388,0,0,1-1.3,2.1,10.39354,10.39354,0,0,1-4.1.6h-15v5.4h-5.6Z" transform="translate(-7.75 -14.05001)"/><path class="b" d="M117.95,28.05v-7.7h18.1a8.08543,8.08543,0,0,0,2-.2c.4-.2.5-.4.5-.9v-1.7a.79181.79181,0,0,0-.5-.8,5.01707,5.01707,0,0,0-2-.2h-18.1v-2.4h20.5a10.064,10.064,0,0,1,4.1.6,2.08341,2.08341,0,0,1,1.3,2.1v3.3a2.03845,2.03845,0,0,1-1.3,2,10.0804,10.0804,0,0,1-4.1.7h-3.1l11.1,5.2h-8l-9.7-5.2h-5.3v5.2Z" transform="translate(-7.75 -14.05001)"/><path class="b" d="M186.65,17.45a2.75064,2.75064,0,0,1,1.2-2.6c.8-.5,2.4-.7,4.7-.7h17.7c2.3,0,3.9.2,4.7.7a2.75064,2.75064,0,0,1,1.2,2.6v7.3a2.75063,2.75063,0,0,1-1.2,2.6c-.8.5-2.4.7-4.7.7h-17.7c-2.3,0-3.9-.2-4.7-.7a2.75063,2.75063,0,0,1-1.2-2.6Zm5.6,7.9h18.4v-8.8h-18.4Z" transform="translate(-7.75 -14.05001)"/><path class="b" d="M262.45,28.05c-2.3,0-3.9-.2-4.7-.7a2.75067,2.75067,0,0,1-1.2-2.6v-2.9h5.6v3.5h11V14.15h5.6v10.6a2.75061,2.75061,0,0,1-1.2,2.6c-.8.5-2.4.7-4.7.7Z" transform="translate(-7.75 -14.05001)"/><path class="b" d="M319.05,14.15h25.1v2.4h-25.1Zm25.3,7.9h-25.4v-2.6h25.4Zm-25.3,3.3h25.4v2.6h-25.4Z" transform="translate(-7.75 -14.05001)"/><path class="b" d="M410.85,14.15v2.5h-20.6v8.7h20.6v2.6h-20.3c-2.3,0-3.9-.2-4.7-.7a2.75067,2.75067,0,0,1-1.2-2.6v-7.3a2.75062,2.75062,0,0,1,1.2-2.6c.9-.5,2.4-.7,4.7-.7h20.3Z" transform="translate(-7.75 -14.05001)"/><path class="b" d="M467.75,16.55v11.4h-5.6V16.55h-11v-2.5h27.7v2.5Z" transform="translate(-7.75 -14.05001)"/></svg>