<?xml version="1.0" encoding="utf-8"?>
<!-- Generator: Adobe Illustrator 20.1.0, SVG Export Plug-In . SVG Version: 6.00 Build 0)  -->
<svg version="1.1" id="Layer_1" xmlns="http://www.w3.org/2000/svg" xmlns:xlink="http://www.w3.org/1999/xlink" x="0px" y="0px"
	 viewBox="0 0 283.5 93.4" style="enable-background:new 0 0 283.5 93.4;" xml:space="preserve">
<style type="text/css">
	.st0{fill:#103A5D;}
	.st1{fill:#0077BF;}
</style>
<g id="XMLID_1_">
	<g id="XMLID_149_">
		<g id="XMLID_2220_">
			<g id="XMLID_2221_">
				<path id="XMLID_2225_" class="st0" d="M56.7,34.4l25.3-12.5C78.4,8.1,68.1,0,52.6,0C39.5,0,31.8,7,25.9,14.6V1.7H0v91.2h25.9V42
					c0-12.2,6.3-18.5,16.2-18.5C49.6,23.5,54.7,27.2,56.7,34.4z"/>
			</g>
		</g>
		<g id="XMLID_56_">
			<g>
				<path id="XMLID_219_" class="st0" d="M92,28.8h6.2v6.1c1.7-4.1,4.8-6.8,9.6-6.6v6.6h-0.4c-5.4,0-9.2,3.5-9.2,10.7v10.3H92V28.8z
					"/>
				<path id="XMLID_216_" class="st0" d="M107.9,42.5v-0.1c0-7.7,5.5-14.1,13.2-14.1c8.6,0,13,6.8,13,14.6c0,0.6-0.1,1.1-0.1,1.7
					h-19.9c0.7,4.4,3.8,6.9,7.8,6.9c3,0,5.2-1.1,7.3-3.2l3.6,3.2c-2.6,3.1-6.1,5.1-11.1,5.1C113.9,56.5,107.9,50.8,107.9,42.5z
					 M127.9,40.5c-0.4-4-2.8-7.1-6.9-7.1c-3.8,0-6.5,2.9-7,7.1H127.9z"/>
				<path id="XMLID_214_" class="st0" d="M135.2,52.4l2.8-4.2c3,2.2,6.1,3.3,8.9,3.3c2.7,0,4.2-1.1,4.2-2.9v-0.1
					c0-2.1-2.9-2.8-6.1-3.8c-4-1.1-8.5-2.8-8.5-8v-0.1c0-5.1,4.3-8.3,9.6-8.3c3.4,0,7.1,1.2,10,3.1l-2.5,4.4
					c-2.6-1.6-5.4-2.6-7.6-2.6c-2.4,0-3.8,1.1-3.8,2.7v0.1c0,2,2.9,2.8,6.1,3.8c4,1.2,8.4,3,8.4,7.9v0.1c0,5.7-4.4,8.5-10.1,8.5
					C142.9,56.4,138.6,55,135.2,52.4z"/>
				<path id="XMLID_211_" class="st0" d="M158.7,42.5v-0.1c0-7.7,5.5-14.1,13.2-14.1c8.6,0,13,6.8,13,14.6c0,0.6-0.1,1.1-0.1,1.7
					h-19.9c0.7,4.4,3.8,6.9,7.8,6.9c3,0,5.2-1.1,7.3-3.2l3.6,3.2c-2.6,3.1-6.1,5.1-11.1,5.1C164.8,56.5,158.7,50.8,158.7,42.5z
					 M178.8,40.5c-0.4-4-2.8-7.1-6.9-7.1c-3.8,0-6.5,2.9-7,7.1H178.8z"/>
				<path id="XMLID_208_" class="st0" d="M186.5,48.1V48c0-5.8,4.6-8.7,11.2-8.7c3,0,5.2,0.5,7.3,1.1v-0.7c0-3.8-2.4-5.9-6.7-5.9
					c-3,0-5.3,0.7-7.7,1.7l-1.6-4.9c3-1.3,5.9-2.2,10.2-2.2c4.1,0,7.1,1.1,9,3c2,1.9,2.9,4.8,2.9,8.4v16.1h-6.1v-3.4
					c-1.8,2.2-4.7,4-8.8,4C191,56.5,186.5,53.6,186.5,48.1z M205,46.2v-1.8c-1.6-0.6-3.7-1.1-6.2-1.1c-4,0-6.4,1.7-6.4,4.5v0.1
					c0,2.6,2.3,4.1,5.3,4.1C201.9,52,205,49.6,205,46.2z"/>
				<path id="XMLID_206_" class="st0" d="M215.4,28.8h6.2v6.1c1.7-4.1,4.8-6.8,9.6-6.6v6.6h-0.4c-5.4,0-9.2,3.5-9.2,10.7v10.3h-6.2
					V28.8z"/>
				<path id="XMLID_204_" class="st0" d="M231.3,42.5v-0.1c0-7.7,6-14.2,14.1-14.2c5.1,0,8.3,1.9,10.8,4.7l-3.9,4.2
					c-1.9-2-3.9-3.4-7-3.4c-4.5,0-7.9,3.9-7.9,8.6v0.1c0,4.8,3.3,8.7,8.1,8.7c2.9,0,5.1-1.3,7-3.3l3.7,3.7c-2.7,3-5.8,5.1-11.1,5.1
					C237.2,56.5,231.3,50.2,231.3,42.5z"/>
				<path id="XMLID_202_" class="st0" d="M259.1,18.5h6.2V33c1.7-2.5,4.3-4.7,8.5-4.7c6.1,0,9.6,4.1,9.6,10.4v17.3h-6.2V40.5
					c0-4.2-2.1-6.6-5.8-6.6c-3.6,0-6.1,2.5-6.1,6.7v15.3h-6.2V18.5z"/>
			</g>
		</g>
	</g>
	<g id="XMLID_122_">
		<g id="XMLID_2226_">
			<path id="XMLID_2227_" class="st1" d="M57.6,40.2c0,0.6,0.1,1.2,0.1,1.9v50.9h25.9v-59c0-2.2-0.1-4.3-0.4-6.3L57.6,40.2z"/>
		</g>
		<g id="XMLID_2174_">
			<path id="XMLID_2175_" class="st1" d="M190.8,70.9L190.8,70.9c0-2.9,2.3-5.4,5.3-5.4c3,0,5.3,2.4,5.3,5.3v0
				c0,2.9-2.4,5.3-5.3,5.3C193.1,76.2,190.8,73.8,190.8,70.9z M200.8,70.8L200.8,70.8c0-2.6-2-4.8-4.7-4.8c-2.7,0-4.7,2.2-4.7,4.8v0
				c0,2.6,2,4.7,4.7,4.7C198.8,75.6,200.8,73.4,200.8,70.8z M193.9,68h2.6c1.3,0,2.2,0.6,2.2,1.8c0,0.9-0.5,1.5-1.2,1.7l1.4,2h-1.6
				l-1.2-1.7h-0.9v1.7h-1.3V68z M196.4,70.7c0.6,0,0.9-0.3,0.9-0.8c0-0.5-0.4-0.8-0.9-0.8h-1.2v1.5H196.4z"/>
		</g>
		<g id="XMLID_48_">
			<path id="XMLID_123_" class="st1" d="M92,65.7h6.2v4.2c1.7-2.5,4.3-4.7,8.5-4.7c6.1,0,9.6,4.1,9.6,10.4v17.3h-6.2V77.4
				c0-4.2-2.1-6.6-5.8-6.6c-3.6,0-6.1,2.5-6.1,6.7v15.3H92V65.7z"/>
			<path id="XMLID_125_" class="st1" d="M119.4,79.4v-0.1c0-7.7,6.2-14.2,14.5-14.2c8.3,0,14.4,6.3,14.4,14.1v0.1
				c0,7.7-6.2,14.1-14.5,14.1C125.5,93.4,119.4,87.1,119.4,79.4z M142.1,79.4v-0.1c0-4.8-3.4-8.7-8.3-8.7c-5,0-8.2,3.9-8.2,8.6v0.1
				c0,4.7,3.4,8.7,8.3,8.7C138.9,88,142.1,84.1,142.1,79.4z"/>
			<path id="XMLID_128_" class="st1" d="M148.1,65.6h6.4l5.4,18.6l6-18.7h5.3l6,18.7l5.5-18.6h6.3l-8.9,27.3h-5.6l-6.1-18.5
				l-6.1,18.5h-5.5L148.1,65.6z"/>
		</g>
	</g>
</g>
</svg>
