<?xml version="1.0" encoding="UTF-8" standalone="no"?>
<svg
   xmlns:dc="http://purl.org/dc/elements/1.1/"
   xmlns:cc="http://creativecommons.org/ns#"
   xmlns:rdf="http://www.w3.org/1999/02/22-rdf-syntax-ns#"
   xmlns:svg="http://www.w3.org/2000/svg"
   xmlns="http://www.w3.org/2000/svg"
   height="125.8"
   width="480"
   xml:space="preserve"
   viewBox="0 0 479.99998 125.8"
   y="0px"
   x="0px"
   id="Layer_1"
   version="1.1"><metadata
     id="metadata306"><rdf:RDF><cc:Work
         rdf:about=""><dc:format>image/svg+xml</dc:format><dc:type
           rdf:resource="http://purl.org/dc/dcmitype/StillImage" /><dc:title></dc:title></cc:Work></rdf:RDF></metadata><defs
     id="defs304" /><style
     id="style178"
     type="text/css">
	.st0{fill:#005295;}
	.st1{fill:#FBB034;}
	.st2{fill:url(#SVGID_1_);}
	.st3{fill:#025493;}
</style><path
     style="fill:#005295"
     id="path180"
     d="m 94.4,73.5 c 0,6.6 4.4,11.7 11.9,11.7 7.5,0 11.9,-5.1 11.9,-11.7 0,-6.4 -4.4,-11.8 -11.9,-11.8 -7.5,0 -11.9,5.4 -11.9,11.8 M 136,94.8 c 0,22.1 -11,31 -30.1,31 -12,0 -28,-6.2 -29.6,-19.9 H 97 c 0.5,1.8 1.8,3.1 3.5,4 1.6,0.8 3.6,1.2 5.3,1.2 9.9,0 11.9,-6.5 11.9,-14.9 v -2.4 c -4.8,4.8 -9.6,7.1 -16.5,7.1 -15.2,0 -25.7,-11.6 -25.7,-26.6 0,-15.2 10.8,-28.2 26.7,-28.2 6.1,0 11.7,2 15.3,7.2 h 0.2 V 47.8 H 136 Z"
     class="st0" /><path
     style="fill:#005295"
     id="path182"
     d="M 0,95.6 6.7,82.7 c 3.8,2.6 10,5.3 14.6,5.3 2.3,0 5.8,-1.1 5.8,-4 0,-4.1 -5.8,-4.3 -11.6,-5.8 C 9.7,76.7 4,73.9 4,64.5 4,51.7 15.6,46 26.9,46 32.8,46 38.7,46.9 44,49.4 L 37.8,61.2 C 35,59.7 31,58.7 27.9,58.7 c -2.1,0 -5.8,0.9 -5.8,3.6 0,3.5 5.8,4.1 8.3,4.6 8.6,1.7 15.1,5.8 15.1,15.4 C 45.5,96 33,101.7 20.9,101.7 13.6,101.6 6.3,99.4 0,95.6"
     class="st0" /><path
     style="fill:#fbb034"
     id="path184"
     d="m 93.5,26.5 c 0,5.3 -4.3,9.6 -9.6,9.6 -5.3,0 -9.6,-4.3 -9.6,-9.6 0,-5.3 4.3,-9.6 9.6,-9.6 5.2,0 9.6,4.3 9.6,9.6"
     class="st1" /><path
     style="fill:#fbb034"
     id="path186"
     d="m 273.3,24.9 c 0,5.3 -4.3,9.6 -9.6,9.6 -5.3,0 -9.6,-4.3 -9.6,-9.6 0,-5.3 4.3,-9.6 9.6,-9.6 5.3,0 9.6,4.4 9.6,9.6"
     class="st1" /><path
     style="fill:#fbb034"
     id="path188"
     d="m 114.2,16.4 c 0,4.5 -3.7,8.1 -8.1,8.1 -4.5,0 -8.1,-3.7 -8.1,-8.1 0,-4.5 3.7,-8.1 8.1,-8.1 4.4,-0.1 8.1,3.6 8.1,8.1"
     class="st1" /><path
     style="fill:#fbb034"
     id="path190"
     d="m 249.6,15.1 c 0,4.5 -3.7,8.1 -8.1,8.1 -4.5,0 -8.1,-3.7 -8.1,-8.1 0,-4.5 3.7,-8.1 8.1,-8.1 4.4,0 8.1,3.7 8.1,8.1"
     class="st1" /><path
     style="fill:#fbb034"
     id="path192"
     d="m 133.2,9.6 c 0,3.5 -2.9,6.4 -6.4,6.4 -3.5,0 -6.4,-2.9 -6.4,-6.4 0,-3.5 2.9,-6.4 6.4,-6.4 3.5,0 6.4,2.9 6.4,6.4"
     class="st1" /><path
     style="fill:#fbb034"
     id="path194"
     d="m 148.8,6.4 c 0,2.6 -2.1,4.7 -4.7,4.7 -2.6,0 -4.7,-2.1 -4.7,-4.7 0,-2.6 2.1,-4.7 4.7,-4.7 2.5,0 4.7,2.1 4.7,4.7"
     class="st1" /><path
     style="fill:#fbb034"
     id="path196"
     d="m 208.2,5.2 c 0,2.6 -2.1,4.7 -4.7,4.7 -2.6,0 -4.7,-2.1 -4.7,-4.7 0,-2.6 2.1,-4.7 4.7,-4.7 2.6,0 4.7,2.2 4.7,4.7"
     class="st1" /><path
     style="fill:#fbb034"
     id="path198"
     d="m 192.4,3.5 c 0,1.9 -1.6,3.5 -3.5,3.5 -1.9,0 -3.5,-1.6 -3.5,-3.5 0,-1.9 1.6,-3.5 3.5,-3.5 1.9,0 3.5,1.6 3.5,3.5"
     class="st1" /><path
     style="fill:#fbb034"
     id="path200"
     d="m 163.8,4.1 c 0,1.9 -1.6,3.5 -3.5,3.5 -1.9,0 -3.5,-1.6 -3.5,-3.5 0,-1.9 1.6,-3.5 3.5,-3.5 1.9,0 3.5,1.6 3.5,3.5"
     class="st1" /><path
     style="fill:#fbb034"
     id="path202"
     d="m 177.7,3.3 c 0,1.4 -1.2,2.6 -2.6,2.6 -1.4,0 -2.6,-1.2 -2.6,-2.6 0,-1.4 1.2,-2.6 2.6,-2.6 1.4,0 2.6,1.2 2.6,2.6"
     class="st1" /><path
     style="fill:#fbb034"
     id="path204"
     d="m 227.5,9.1 c 0,3.5 -2.9,6.4 -6.4,6.4 -3.5,0 -6.4,-2.9 -6.4,-6.4 0,-3.5 2.9,-6.4 6.4,-6.4 3.5,0 6.4,2.9 6.4,6.4"
     class="st1" /><path
     style="fill:#fbb034"
     id="path206"
     d="m 71.2,39 c 0,5.8 -4.8,10.6 -10.6,10.6 C 54.8,49.6 50,44.8 50,39 c 0,-5.8 4.8,-10.6 10.6,-10.6 5.8,0 10.6,4.8 10.6,10.6"
     class="st1" /><path
     style="fill:#fbb034"
     id="path208"
     d="m 298.9,39 c 0,5.8 -4.8,10.6 -10.6,10.6 -5.8,0 -10.6,-4.8 -10.6,-10.6 0,-5.8 4.8,-10.6 10.7,-10.6 5.8,0 10.5,4.8 10.5,10.6"
     class="st1" /><path
     style="fill:#005295"
     id="path210"
     d="m 162.7,54.5 h 0.2 c 4.3,-6.3 9.4,-8.4 16.6,-8.4 14,0 19.6,8.8 19.6,21.6 V 99.9 H 180.6 V 74.5 c 0,-5 0.8,-13.7 -8.3,-13.7 -7.5,0 -9.6,5.6 -9.6,12.1 v 27 H 144.2 V 47.8 h 18.5 z"
     class="st0" /><path
     style="fill:#005295"
     id="path212"
     d="m 329.7,47.8 v 27.8 c 0,6.6 1.6,11.3 9.2,11.3 7.6,0 9.2,-4.7 9.2,-11.3 V 47.8 h 18.5 v 31.4 c 0,17.1 -12.1,22.4 -27.7,22.4 -15.6,0 -27.7,-5.3 -27.7,-22.4 V 47.8 Z"
     class="st0" /><path
     style="fill:#005295"
     id="path214"
     d="m 393.3,56.3 h 0.2 c 3.6,-6.4 8.8,-9.2 16,-9.2 h 0.3 v 17.1 c -0.7,-0.7 -2,-1.1 -3.6,-1.1 -10.2,0 -12.8,6.8 -12.8,15.7 v 21 h -18.5 v -52 h 18.5 v 8.5 z"
     class="st0" /><path
     style="fill:#005295"
     id="path216"
     d="m 449.7,66.3 c -0.9,-5 -5.5,-8.2 -10.5,-8.2 -5.4,0 -9.8,2.8 -11,8.2 z m 17.1,10.6 h -38.9 c 0,7.5 4,11.6 11.6,11.6 4,0 6.8,-1.3 8.8,-4.8 h 17.8 c -2.9,12.3 -14.6,17.9 -26.5,17.9 -17.2,0 -30.1,-9.7 -30.1,-27.7 0,-17.3 11.9,-27.8 28.8,-27.8 18.1,0 28.5,11.2 28.5,28.9 z"
     class="st0" /><path
     style="fill:#005295"
     id="path218"
     d="m 227.3,116.5 v 0 c 0,-3.6 2.7,-6.5 6.5,-6.5 2.3,0 3.8,0.8 4.9,1.9 l -1.7,2 c -1,-0.9 -1.9,-1.4 -3.2,-1.4 -2.1,0 -3.6,1.7 -3.6,3.9 v 0 c 0,2.1 1.5,3.9 3.6,3.9 1.4,0 2.3,-0.6 3.3,-1.5 l 1.7,1.8 c -1.3,1.4 -2.7,2.2 -5.1,2.2 -3.7,0.1 -6.4,-2.7 -6.4,-6.3"
     class="st0" /><path
     style="fill:#005295"
     id="path220"
     d="m 260.6,116.5 v 0 c 0,-2.2 -1.6,-4 -3.8,-4 -2.2,0 -3.7,1.7 -3.7,3.9 v 0 c 0,2.1 1.6,3.9 3.8,3.9 2.2,0.1 3.7,-1.7 3.7,-3.8 m -10.4,0 v 0 c 0,-3.6 2.8,-6.5 6.6,-6.5 3.8,0 6.6,2.9 6.6,6.4 v 0 c 0,3.5 -2.8,6.4 -6.6,6.4 -3.8,0.1 -6.6,-2.8 -6.6,-6.3"
     class="st0" /><polygon
     transform="translate(0,-4.6)"
     style="fill:#005295"
     id="polygon222"
     points="284.4,122.5 284.4,114.8 287.1,114.8 287.1,127.3 284.8,127.3 278.8,119.4 278.8,127.3 276.1,127.3 276.1,114.8 278.6,114.8 "
     class="st0" /><path
     style="fill:#005295"
     id="path224"
     d="M 299.4,120.9 301,119 c 1.1,0.9 2.3,1.5 3.7,1.5 1.1,0 1.8,-0.4 1.8,-1.2 v 0 c 0,-0.7 -0.4,-1.1 -2.5,-1.6 -2.5,-0.6 -4.1,-1.3 -4.1,-3.8 v 0 c 0,-2.3 1.8,-3.8 4.4,-3.8 1.8,0 3.4,0.6 4.6,1.6 l -1.4,2.1 c -1.1,-0.8 -2.2,-1.2 -3.2,-1.2 -1.1,0 -1.6,0.5 -1.6,1.1 v 0 c 0,0.8 0.5,1.1 2.7,1.6 2.5,0.7 3.9,1.6 3.9,3.7 v 0 c 0,2.5 -1.9,3.9 -4.6,3.9 -1.9,0 -3.8,-0.7 -5.3,-2"
     class="st0" /><path
     style="fill:#005295"
     id="path226"
     d="m 321.6,117.3 v -7.1 h 2.7 v 7 c 0,2 1,3.1 2.7,3.1 1.7,0 2.7,-1 2.7,-3 v -7.1 h 2.7 v 7 c 0,3.8 -2.1,5.6 -5.5,5.6 -3.2,0.1 -5.3,-1.8 -5.3,-5.5"
     class="st0" /><polygon
     transform="translate(0,-4.6)"
     style="fill:#005295"
     id="polygon228"
     points="348.2,124.8 354.4,124.8 354.4,127.3 345.4,127.3 345.4,114.8 348.2,114.8 "
     class="st0" /><polygon
     transform="translate(0,-4.6)"
     style="fill:#005295"
     id="polygon230"
     points="363.9,114.8 374.3,114.8 374.3,117.3 370.5,117.3 370.5,127.3 367.7,127.3 367.7,117.3 363.9,117.3 "
     class="st0" /><path
     style="fill:#005295"
     id="path232"
     d="m 392.1,117.5 -1.7,-4 -1.7,4 z m -2.9,-7.4 h 2.5 l 5.3,12.6 h -2.9 l -1.1,-2.8 h -5.3 l -1.1,2.8 h -2.8 z"
     class="st0" /><polygon
     transform="translate(0,-4.6)"
     style="fill:#005295"
     id="polygon234"
     points="417.5,122.5 417.5,114.8 420.2,114.8 420.2,127.3 417.9,127.3 411.8,119.4 411.8,127.3 409.1,127.3 409.1,114.8 411.6,114.8 "
     class="st0" /><polygon
     transform="translate(0,-4.6)"
     style="fill:#005295"
     id="polygon236"
     points="432.4,114.8 442.8,114.8 442.8,117.3 439,117.3 439,127.3 436.2,127.3 436.2,117.3 432.4,117.3 "
     class="st0" /><path
     style="fill:#005295"
     id="path238"
     d="m 453.9,120.9 1.6,-1.9 c 1.1,0.9 2.3,1.5 3.7,1.5 1.1,0 1.8,-0.4 1.8,-1.2 v 0 c 0,-0.7 -0.4,-1.1 -2.5,-1.6 -2.5,-0.6 -4.1,-1.3 -4.1,-3.8 v 0 c 0,-2.3 1.8,-3.8 4.4,-3.8 1.8,0 3.4,0.6 4.6,1.6 l -1.4,2.1 c -1.1,-0.8 -2.2,-1.2 -3.2,-1.2 -1,0 -1.6,0.5 -1.6,1.1 v 0 c 0,0.8 0.5,1.1 2.7,1.6 2.5,0.7 4,1.6 4,3.7 v 0 c 0,2.5 -1.9,3.9 -4.6,3.9 -2,0 -3.9,-0.7 -5.4,-2"
     class="st0" /><path
     style="fill:#005295"
     id="path240"
     d="m 300.8,47.8 c -2.8,3.9 -7.3,6.5 -12.5,6.5 -5.2,0 -9.7,-2.6 -12.5,-6.5 h -7.2 V 63 h 10.2 v 36.8 0 h 0.2 18.2 v 0 h 0.2 V 63 h 9.9 V 47.8 Z"
     class="st0" /><path
     style="fill:#005295"
     id="path242"
     d="M 51.1,51 V 99.9 H 69.6 V 51.3 c -2.5,1.9 -5.6,3 -9,3 C 57,54.3 53.8,53 51.1,51"
     class="st0" /><path
     style="fill:#005295"
     id="path244"
     d="m 222.7,74 c 0,6.6 4.4,11.7 11.9,11.7 7.5,0 11.9,-5.1 11.9,-11.7 0,-6.4 -4.4,-11.8 -11.9,-11.8 -7.6,0 -11.9,5.4 -11.9,11.8 m 41.7,26 h -18.5 v -5.8 h -0.2 c -3.3,5.2 -9.7,7.5 -15.8,7.5 -15.5,0 -26.3,-12.9 -26.3,-27.9 0,-14.9 10.7,-27.8 26.1,-27.8 6,0 12.3,2.2 16.2,6.8 v -5.1 h 18.5 z"
     class="st0" /><path
     style="fill:#005295"
     id="path246"
     d="m 472.7,52.2 h 0.7 c 0.8,0 1.4,-0.3 1.4,-0.9 0,-0.6 -0.4,-0.9 -1.3,-0.9 -0.4,0 -0.6,0 -0.8,0.1 z m 0,3.5 h -1.4 v -6.2 c 0.6,-0.1 1.4,-0.2 2.4,-0.2 1.2,0 1.7,0.2 2.1,0.5 0.4,0.3 0.6,0.7 0.6,1.3 0,0.8 -0.6,1.2 -1.3,1.5 v 0.1 c 0.6,0.2 0.9,0.7 1.1,1.5 0.2,0.9 0.3,1.3 0.5,1.5 h -1.5 c -0.2,-0.2 -0.3,-0.8 -0.5,-1.5 -0.1,-0.6 -0.5,-0.9 -1.3,-0.9 h -0.7 z m -3.9,-3.2 c 0,2.8 2.1,5 4.8,5 2.7,0 4.7,-2.2 4.7,-4.9 0,-2.8 -2,-5 -4.8,-5 -2.6,-0.1 -4.7,2.2 -4.7,4.9 m 11.2,0 c 0,3.5 -2.8,6.2 -6.4,6.2 -3.6,0 -6.4,-2.8 -6.4,-6.2 0,-3.5 2.8,-6.2 6.4,-6.2 3.6,0 6.4,2.7 6.4,6.2"
     class="st0" /></svg>